{
  "accessors": [
    {
      "bufferView": 2,
      "componentType": 5126,
      "count": 65532,
      "max": [
        0.2504241168498993,
        1.8060609102249146,
        0.24912694096565247
      ],
      "min": [
        -0.2370576560497284,
        -3.2370717525482178,
        -0.2402653992176056
      ],
      "type": "VEC3"
    },
    {
      "bufferView": 2,
      "byteOffset": 786384,
      "componentType": 5126,
      "count": 65532,
      "max": [
        0.999993622303009,
        0.9999977350234985,
        1.0
      ],
      "min": [
        -0.9999889135360718,
        -0.9999968409538269,
        -1.0
      ],
      "type": "VEC3"
    },
    {
      "bufferView": 1,
      "componentType": 5126,
      "count": 65532,
      "max": [
        1.0079071521759033,
        1.008986234664917
      ],
      "min": [
        0.0,
        0.0
      ],
      "type": "VEC2"
    },
    {
      "bufferView": 0,
      "componentType": 5125,
      "count": 267099,
      "type": "SCALAR"
    },
    {
      "bufferView": 2,
      "byteOffset": 1572768,
      "componentType": 5126,
      "count": 65533,
      "max": [
        0.08249437808990479,
        -2.113604784011841,
        0.031341712921857834
      ],
      "min": [
        -0.0804806798696518,
        -3.2369253635406494,
        -0.032836802303791046
      ],
      "type": "VEC3"
    },
    {
      "bufferView": 2,
      "byteOffset": 2359164,
      "componentType": 5126,
      "count": 65533,
      "max": [
        0.9999972581863403,
        0.9999998211860657,
        1.0
      ],
      "min": [
        -0.9999996423721313,
        -0.9999995231628418,
        -1.0
      ],
      "type": "VEC3"
    },
    {
      "bufferView": 1,
      "byteOffset": 524256,
      "componentType": 5126,
      "count": 65533,
      "max": [
        0.9903004169464111,
        0.9880936145782471
      ],
      "min": [
        0.00890040397644043,
        0.00890040397644043
      ],
      "type": "VEC2"
    },
    {
      "bufferView": 0,
      "byteOffset": 1068396,
      "componentType": 5125,
      "count": 137898,
      "type": "SCALAR"
    },
    {
      "bufferView": 2,
      "byteOffset": 3145560,
      "componentType": 5126,
      "count": 65532,
      "max": [
        0.07840386033058167,
        -2.113604784011841,
        0.03283678740262985
      ],
      "min": [
        -0.0804806798696518,
        -3.2350661754608154,
        -0.03181879222393036
      ],
      "type": "VEC3"
    },
    {
      "bufferView": 2,
      "byteOffset": 3931944,
      "componentType": 5126,
      "count": 65532,
      "max": [
        1.0,
        0.9999998211860657,
        1.0
      ],
      "min": [
        -0.9999999403953552,
        -0.9999995231628418,
        -1.0
      ],
      "type": "VEC3"
    },
    {
      "bufferView": 1,
      "byteOffset": 1048520,
      "componentType": 5126,
      "count": 65532,
      "max": [
        0.9910995960235596,
        0.9877474308013916
      ],
      "min": [
        0.008900478482246399,
        0.00890040397644043
      ],
      "type": "VEC2"
    },
    {
      "bufferView": 0,
      "byteOffset": 1619988,
      "componentType": 5125,
      "count": 107568,
      "type": "SCALAR"
    },
    {
      "bufferView": 2,
      "byteOffset": 4718328,
      "componentType": 5126,
      "count": 65532,
      "max": [
        0.23764607310295105,
        1.758876085281372,
        0.14072424173355103
      ],
      "min": [
        -0.31499117612838745,
        -3.197909116744995,
        -0.1486135870218277
      ],
      "type": "VEC3"
    },
    {
      "bufferView": 2,
      "byteOffset": 5504712,
      "componentType": 5126,
      "count": 65532,
      "max": [
        0.999997615814209,
        0.9999989867210388,
        1.0
      ],
      "min": [
        -0.9999999403953552,
        -0.9999939203262329,
        -1.0
      ],
      "type": "VEC3"
    },
    {
      "bufferView": 1,
      "byteOffset": 1572776,
      "componentType": 5126,
      "count": 65532,
      "max": [
        0.9965140223503113,
        0.9934071898460388
      ],
      "min": [
        0.004030019044876099,
        0.0034859105944633484
      ],
      "type": "VEC2"
    },
    {
      "bufferView": 0,
      "byteOffset": 2050260,
      "componentType": 5125,
      "count": 238275,
      "type": "SCALAR"
    },
    {
      "bufferView": 2,
      "byteOffset": 6291096,
      "componentType": 5126,
      "count": 31254,
      "max": [
        0.2214638590812683,
        0.563082218170166,
        0.24786576628684998
      ],
      "min": [
        -0.31499117612838745,
        -0.5472242832183838,
        -0.2376181185245514
      ],
      "type": "VEC3"
    },
    {
      "bufferView": 2,
      "byteOffset": 6666144,
      "componentType": 5126,
      "count": 31254,
      "max": [
        0.9999957084655762,
        0.999974250793457,
        1.0
      ],
      "min": [
        -1.0,
        -0.9999939203262329,
        -1.0
      ],
      "type": "VEC3"
    },
    {
      "bufferView": 1,
      "byteOffset": 2097032,
      "componentType": 5126,
      "count": 31254,
      "max": [
        0.9959699511528015,
        0.9934071898460388
      ],
      "min": [
        0.004029989242553711,
        0.0034859180450439453
      ],
      "type": "VEC2"
    },
    {
      "bufferView": 0,
      "byteOffset": 3003360,
      "componentType": 5125,
      "count": 130392,
      "type": "SCALAR"
    },
    {
      "bufferView": 2,
      "byteOffset": 7041192,
      "componentType": 5126,
      "count": 19573,
      "max": [
        0.3469998240470886,
        0.7129822969436646,
        0.050097182393074036
      ],
      "min": [
        -0.37417513132095337,
        -3.565746545791626,
        -0.04991622269153595
      ],
      "type": "VEC3"
    },
    {
      "bufferView": 2,
      "byteOffset": 7276068,
      "componentType": 5126,
      "count": 19573,
      "max": [
        0.9999972581863403,
        1.0,
        1.0
      ],
      "min": [
        -0.9999998807907104,
        -0.9999597072601318,
        -1.0
      ],
      "type": "VEC3"
    },
    {
      "bufferView": 1,
      "byteOffset": 2347064,
      "componentType": 5126,
      "count": 19573,
      "max": [
        0.7200830578804016,
        0.9915740489959717
      ],
      "min": [
        0.008426010608673096,
        0.00842595100402832
      ],
      "type": "VEC2"
    },
    {
      "bufferView": 1,
      "byteOffset": 2503648,
      "componentType": 5126,
      "count": 19573,
      "max": [
        0.7200830578804016,
        0.9915740489959717
      ],
      "min": [
        0.008426010608673096,
        0.00842595100402832
      ],
      "type": "VEC2"
    },
    {
      "bufferView": 0,
      "byteOffset": 3524928,
      "componentType": 5125,
      "count": 101484,
      "type": "SCALAR"
    },
    {
      "bufferView": 2,
      "byteOffset": 7510944,
      "componentType": 5126,
      "count": 11833,
      "max": [
        0.2010110467672348,
        1.7078332901000977,
        0.19900062680244446
      ],
      "min": [
        -0.18154367804527283,
        0.38194555044174194,
        -0.18363988399505615
      ],
      "type": "VEC3"
    },
    {
      "bufferView": 2,
      "byteOffset": 7652940,
      "componentType": 5126,
      "count": 11833,
      "max": [
        0.9999812841415405,
        0.9960784316062927,
        0.9999972581863403
      ],
      "min": [
        -0.9999990463256836,
        -0.9999997615814209,
        -0.9999988079071045
      ],
      "type": "VEC3"
    },
    {
      "bufferView": 1,
      "byteOffset": 2660232,
      "componentType": 5126,
      "count": 11833,
      "max": [
        0.9882538914680481,
        0.7530933022499084
      ],
      "min": [
        0.0,
        0.0
      ],
      "type": "VEC2"
    },
    {
      "bufferView": 0,
      "byteOffset": 3930864,
      "componentType": 5125,
      "count": 38976,
      "type": "SCALAR"
    },
    {
      "bufferView": 2,
      "byteOffset": 7794936,
      "componentType": 5126,
      "count": 13955,
      "max": [
        0.2004624456167221,
        1.568265438079834,
        0.13531848788261414
      ],
      "min": [
        -0.05992969125509262,
        -0.4936807155609131,
        -0.11751881241798401
      ],
      "type": "VEC3"
    },
    {
      "bufferView": 2,
      "byteOffset": 7962396,
      "componentType": 5126,
      "count": 13955,
      "max": [
        0.9999526739120483,
        0.9999850988388062,
        1.0
      ],
      "min": [
        -0.999980092048645,
        -0.9999529123306274,
        -1.0
      ],
      "type": "VEC3"
    },
    {
      "bufferView": 1,
      "byteOffset": 2754896,
      "componentType": 5126,
      "count": 13955,
      "max": [
        0.9933483004570007,
        0.983252763748169
      ],
      "min": [
        0.0,
        0.0
      ],
      "type": "VEC2"
    },
    {
      "bufferView": 0,
      "byteOffset": 4086768,
      "componentType": 5125,
      "count": 78192,
      "type": "SCALAR"
    }
  ],
  "asset": {
    "extras": {
      "author": "Radhlya (https://sketchfab.com/Radhlya)",
      "license": "CC-BY-4.0 (http://creativecommons.org/licenses/by/4.0/)",
      "source": "https://sketchfab.com/3d-models/mist-splitter-genshin-impact-b1bcfd7d078e474fb513f59b5faa6ed4",
      "title": "Mist Splitter - Genshin Impact"
    },
    "generator": "Sketchfab-11.53.2",
    "version": "2.0"
  },
  "bufferViews": [
    {
      "buffer": 0,
      "byteLength": 4399536,
      "name": "floatBufferViews",
      "target": 34963
    },
    {
      "buffer": 0,
      "byteLength": 2866536,
      "byteOffset": 4399536,
      "byteStride": 8,
      "name": "floatBufferViews",
      "target": 34962
    },
    {
      "buffer": 0,
      "byteLength": 8129856,
      "byteOffset": 7266072,
      "byteStride": 12,
      "name": "floatBufferViews",
      "target": 34962
    }
  ],
  "buffers": [
    {
      "byteLength": 15395928,
      "uri": "scene.bin"
    }
  ],
  "images": [
    {
      "uri": "textures/Texture_Sword_baseColor.png"
    }
  ],
  "materials": [
    {
      "doubleSided": true,
      "name": "Cream",
      "pbrMetallicRoughness": {
        "baseColorFactor": [
          0.768151,
          0.496933,
          0.47932,
          1.0
        ],
        "metallicFactor": 0.595238,
        "roughnessFactor": 0.388095
      }
    },
    {
      "doubleSided": true,
      "emissiveFactor": [
        1.0,
        1.0,
        1.0
      ],
      "emissiveTexture": {
        "index": 0
      },
      "name": "Texture_Sword",
      "pbrMetallicRoughness": {
        "baseColorTexture": {
          "index": 0
        },
        "metallicFactor": 0.0,
        "roughnessFactor": 0.5
      }
    },
    {
      "doubleSided": true,
      "name": "Dark_Blue",
      "pbrMetallicRoughness": {
        "baseColorFactor": [
          0.0185002,
          0.00972122,
          0.0409152,
          1.0
        ],
        "metallicFactor": 0.0,
        "roughnessFactor": 0.5
      }
    },
    {
      "doubleSided": true,
      "emissiveFactor": [
        0.53948,
        0.0865005,
        0.991102
      ],
      "name": "Purple_Glow"
    }
  ],
  "meshes": [
    {
      "name": "Object_0",
      "primitives": [
        {
          "attributes": {
            "NORMAL": 1,
            "POSITION": 0,
            "TEXCOORD_0": 2
          },
          "indices": 3,
          "material": 0,
          "mode": 4
        }
      ]
    },
    {
      "name": "Object_1",
      "primitives": [
        {
          "attributes": {
            "NORMAL": 5,
            "POSITION": 4,
            "TEXCOORD_0": 6
          },
          "indices": 7,
          "material": 0,
          "mode": 4
        }
      ]
    },
    {
      "name": "Object_2",
      "primitives": [
        {
          "attributes": {
            "NORMAL": 9,
            "POSITION": 8,
            "TEXCOORD_0": 10
          },
          "indices": 11,
          "material": 0,
          "mode": 4
        }
      ]
    },
    {
      "name": "Object_3",
      "primitives": [
        {
          "attributes": {
            "NORMAL": 13,
            "POSITION": 12,
            "TEXCOORD_0": 14
          },
          "indices": 15,
          "material": 0,
          "mode": 4
        }
      ]
    },
    {
      "name": "Object_4",
      "primitives": [
        {
          "attributes": {
            "NORMAL": 17,
            "POSITION": 16,
            "TEXCOORD_0": 18
          },
          "indices": 19,
          "material": 0,
          "mode": 4
        }
      ]
    },
    {
      "name": "Object_5",
      "primitives": [
        {
          "attributes": {
            "NORMAL": 21,
            "POSITION": 20,
            "TEXCOORD_0": 22,
            "TEXCOORD_1": 23
          },
          "indices": 24,
          "material": 1,
          "mode": 4
        }
      ]
    },
    {
      "name": "Object_6",
      "primitives": [
        {
          "attributes": {
            "NORMAL": 26,
            "POSITION": 25,
            "TEXCOORD_0": 27
          },
          "indices": 28,
          "material": 2,
          "mode": 4
        }
      ]
    },
    {
      "name": "Object_7",
      "primitives": [
        {
          "attributes": {
            "NORMAL": 30,
            "POSITION": 29,
            "TEXCOORD_0": 31
          },
          "indices": 32,
          "material": 3,
          "mode": 4
        }
      ]
    }
  ],
  "nodes": [
    {
      "children": [
        1
      ],
      "matrix": [
        1.0,
        0.0,
        0.0,
        0.0,
        0.0,
        2.220446049250313e-16,
        -1.0,
        0.0,
        0.0,
        1.0,
        2.220446049250313e-16,
        0.0,
        0.0,
        0.0,
        0.0,
        1.0
      ],
      "name": "Sketchfab_model"
    },
    {
      "children": [
        2
      ],
      "name": "root"
    },
    {
      "children": [
        3
      ],
      "matrix": [
        1.0,
        0.0,
        0.0,
        0.0,
        0.0,
        2.220446049250313e-16,
        1.0,
        0.0,
        0.0,
        -1.0,
        2.220446049250313e-16,
        0.0,
        0.0,
        0.0,
        0.0,
        1.0
      ],
      "name": "GLTF_SceneRootNode"
    },
    {
      "children": [
        4,
        5,
        6,
        7,
        8,
        9,
        10,
        11
      ],
      "matrix": [
        0.9199832507397714,
        0.0,
        -0.39195767419235844,
        0.0,
        0.0,
        1.0,
        0.0,
        0.0,
        0.39195767419235844,
        0.0,
        0.9199832507397714,
        0.0,
        -0.0902336835861206,
        3.2269225120544434,
        0.01319803111255169,
        1.0
      ],
      "name": "Mist Splitter_0"
    },
    {
      "mesh": 0,
      "name": "Object_4"
    },
    {
      "mesh": 1,
      "name": "Object_5"
    },
    {
      "mesh": 2,
      "name": "Object_6"
    },
    {
      "mesh": 3,
      "name": "Object_7"
    },
    {
      "mesh": 4,
      "name": "Object_8"
    },
    {
      "mesh": 5,
      "name": "Object_9"
    },
    {
      "mesh": 6,
      "name": "Object_10"
    },
    {
      "mesh": 7,
      "name": "Object_11"
    }
  ],
  "samplers": [
    {
      "magFilter": 9729,
      "minFilter": 9987,
      "wrapS": 10497,
      "wrapT": 10497
    }
  ],
  "scene": 0,
  "scenes": [
    {
      "name": "Sketchfab_Scene",
      "nodes": [
        0
      ]
    }
  ],
  "textures": [
    {
      "sampler": 0,
      "source": 0
    }
  ]
}
